# xmcd
#
# Track frame offsets:
# 150
# 25649
# 45343
# 70877
# 94464
# 109648
# 131183
# 158009
# 173185
# 187268
# 206011
# 226698
# 246832
# 264833
#
# Disc length: 3841 seconds
#
#
# Revision: 2
# Processed by: cddbd v1.5.2PL0 Copyright (c) Steve Scherf et al.
# Submitted via: FreeRIP 2.951 
#
DISCID=b90eff0e
DTITLE=Daniel - Ao Vivo 2005
DYEAR=2005
DGENRE=Setanejo
TTITLE0=Te Amo Cada Vez Mais
TTITLE1=Desejo de Amar
TTITLE2=Os Amantes
TTITLE3=Pout pourri - Que Era Eu - Um Homem Apaixonado - Declaracao de Amor
TTITLE4=Memorias de Uma Paixao
TTITLE5=Quando Eu Quero Falar com Deus
TTITLE6=Pout pourri - Rosto Molhado - Sombra Boa e Agua Fresca - Cabelo Loiro
TTITLE7=Jogado na Rua
TTITLE8=Vou de Fusca
TTITLE9=Em Qualquer Lugar do Mundo
TTITLE10=Querida
TTITLE11=Filho Adotivo
TTITLE12=Eu Sem Voce
TTITLE13=Puot pourri - Direto no Coracao - Fricote
EXTD=LEONARDO
EXTT0=
EXTT1=
EXTT2=
EXTT3=
EXTT4=
EXTT5=
EXTT6=
EXTT7=
EXTT8=
EXTT9=
EXTT10=
EXTT11=
EXTT12=
EXTT13=
PLAYORDER=
